<svg xmlns="http://www.w3.org/2000/svg" viewBox="0 0 602.3 490.83"><defs><style>.cls-1{fill:#85ada4;opacity:0.2;}.cls-2{fill:#e9f8ff;stroke-miterlimit:10;}.cls-2,.cls-8,.cls-9{stroke:#000;}.cls-3{fill:#ffd0b0;}.cls-4{fill:#513720;}.cls-5{fill:#2b00ff;}.cls-6{fill:#ffca00;}.cls-7{fill:#e70006;}.cls-8,.cls-9{fill:#fff;opacity:0.7;}.cls-8{stroke-width:0.27px;}.cls-9{stroke-width:0.23px;}</style></defs><g id="Layer_2" data-name="Layer 2"><g id="background"><path class="cls-1" d="M63.91,232.12c-5.82-52.32,15-115.7,29.6-157.24,20.26-57.64,67.11-64.94,176-64.42,143.3.7,122.27-16.62,204,40.18,71.88,49.93,48.68,100.78,77.88,164.16,32.22,69.91,56,115-52.62,152.05-65.16,22.23-138,4.37-212.16-5.89-72.51-10-171.54,34.82-202.49-8.32C46.29,299.85,68.38,272.27,63.91,232.12Z"/></g><g id="thought_bubbles" data-name="thought bubbles"><path class="cls-2" d="M274.48,67.92c0-37.23-61.33-67.42-137-67.42S.5,30.69.5,67.92s61.33,67.42,137,67.42c26.4,0,51-3.68,71.95-10h46.4V101.89C267.69,91.92,274.48,80.31,274.48,67.92Z"/><path class="cls-2" d="M412.43,97.79c-3.61-25.7,35.8-52.49,88-59.83S598,45.51,601.57,71.21s-35.8,52.49-88,59.84a174,174,0,0,1-50.64,0l-32,4.51-2.27-16.16C419.45,113.7,413.63,106.35,412.43,97.79Z"/></g><g id="girl"><path class="cls-3" d="M324.2,55.75c-7.34-1-14.18,10.94-18.47,16.77s-7.77,2.83-8.39,9.58-.51,14.16-.51,21.21.8,27.84,3.25,33.36,5.95,12.14,14.54,18,15.43,12.41,23.1,10.87,13.68-2.55,21-9,11.3-12.61,12.83-16.6,1.61-5.55,2.23-9.23-1.82-6-1.2-7.87.45,2,2.91.51,3.26-10,3.26-12.73-.45-11.41,0-15.64c.61-5.83-3.38-13.58-7.37-12.35s-6.33,6.44-6.33,7.36.2-2.68.2-2.68c-5.52-5.83-8.9-7.37-13.19-11.66s-7.94-7.36-11.49-10.43a79.32,79.32,0,0,0-10-6.75Z"/><path class="cls-4" d="M323.16,47.75c-13.28,1.74-11-2.87-23.2,9.49C289.57,67.76,289.61,66,286.22,83c-3.53,17.68-2.62,12.52-2.53,23.34.22,27-1.23,56.75-2.15,68.71s-3.68,25.16-6.13,32.52-6.75,14.73-5.83,19-2.46,5.22,8.89,14.11,17.18,10.43,22.71,12,8,3.37,4.29-2.46-9.51-16-4.91-12.88,3.07,3.37,7.36,6.75a31.64,31.64,0,0,0,15.24,6.13c4.4.31,6.85.62,5-2.76s-4.29-2.15-11.35-11.35-15.95-.31-15.95-21.47-3.07-31.6.61-32.83,10.74-1.23,12.58-4.6,9.38,2.2,11.57-3.87c1.63-4.52-7.9-11.65-7.9-16.26,0-3.17-4-6.83-6.39-7.69-1.06-.38-5-4.28-6-6-3.07-5.52-4.16-7-4.47-15.27s0-13.19,0-23-2.15-15,.61-21.17,4.6-9.2,10.43-15,9.21-8.9,12.27-10.43,5.83.92,9.51,4,11.05,8.28,14.88,11.35,7.21,5.52,10.89,8.89,4.6,8.9,6.14,11.36.92-.93,2.76-4.61,4.6-4.9,6.13-3.06a13.54,13.54,0,0,1,3.18,10.55c-.62,5.22,1.12,8.16-.11,13.68s-.61,9.2-4.29,9.2-2.15,4.3-2.15,7.06.92,5.83,0,9.51a15,15,0,0,1-5.73,8c-1.84,1.22-1,10.43.21,15.33s-1.32,14.73,3.89,17.19,5.09,3.64,13.37,6.1,9.68,2.58,9.68,2.58A66,66,0,0,1,391.06,171c0-8.58,0-2.18-.31-9.2s-2.86-19-4.6-28.22c-1-5.39,0,0-2.15-8.28a79.55,79.55,0,0,1-2.76-17.8c-.3-5.21-1.53-12.88-1.84-18.4s.92-7.37-1.22-12.58-.93-6.44-7.06-15-7.36-9.21-12-11.35-8.9-4.6-15.65-4.6S323.16,47.75,323.16,47.75Z"/><path class="cls-3" d="M329.59,447.74c-5.37,4.42-7.9,5.68-11.37,6.95s-8.52,3.15-12.31,3.15a9.71,9.71,0,0,0-6,1.9,29,29,0,0,1-2.56,6.05c-1.89,3.47-.28,8.78-.28,11.94s-1.29,10.9,0,10.73a48.6,48.6,0,0,0,11.05-1.58c5.68-1.57,15.15-3.78,18.94-6.31s5.68-4.73,8.21-4.42,1.58,1.26,6.94,2.53a21.9,21.9,0,0,0,9.46.23L362,477.28s.4-.18-4.33-2.08-9.15-2.73-11.68-7a135.36,135.36,0,0,1-6.94-12.84A99,99,0,0,1,334.32,443Z"/><path class="cls-5" d="M316.3,363.92c7.58.31,22.1-.32,29.36,0s19.57.76,23.36-.09,18.3-.73,24.62,0,8.21-.6,8.21-.6,1.26-.58,1.57,4.16-6.22,10.19-6.22,10.19a16.32,16.32,0,0,0,6.36,1.49,47.36,47.36,0,0,0,12.49-1.58c4.42-1.26,20.2-7.89,20.2-7.89l14.82-4.74s14.3-3.37,24.64.95c10.05,4.2,15.32,5.09,17.36,13.26,1.5,6,4.89,2.51,1.9,20.83-2.88,17.6-10.42,21.78-16.42,26.83s-39.46,19.89-39.46,19.89l-24,12.75s-18.51,6.11-24.82,8.95-19.39,6.62-19.39,6.62L362,477.28s-12.56-2.35-15.72-8.35S334.54,450,333.91,446.21s8.27-11.58,1.33-3.69-10.1,10.41-17.68,14.2-4.19,6.95-18,4.42c-14.54-2.67-31.74-6.49-41.84-12.17s-29.41-9.39-35.41-15.39S211.81,422.08,209,417s-8.25-16.5-8.95-29.67c-.71-13.57,2.35-17.42,6.58-24.6,4.05-6.87,9.76-6.26,21-8,11.4-1.76,14.56-1.95,23,2.53,6.51,3.44,4.58,1,18.63,16.1,3.33,3.59,9.68.24,7.15-3.23s-4.63-11.61-4.63-11.61Z"/><path class="cls-3" d="M249.18,299.57a107,107,0,0,0,.63,15.45l.88,17s.17,8.1,1.71,10.24,5.21,11.35,8.9,14.11,9.51,11.05,16.25,16.57,19.33,15.34,19.33,15.34L314.67,399l-5.21,6.13s-5.22,5.83-7.06,8.9-6.41,10.63-4.26,11.55,8.56-1.43,8.56-1.43c1.53-1.53,5.83-6.44,5.83-6.44l2.94.72,1.35,3.27a34.4,34.4,0,0,1-4.91,4.91c-2.14,1.53-8.28,8.59-8.28,8.59l-5.09,4.3-5.1,4.19s-.56-.47-1.64,1.64,12.54,9.64,20.59,8.57c4-.54,11.48-1.46,14.94-4.74a111.72,111.72,0,0,0,8-8.94s1,5.4,2.58,8,8.46,7.14,8.46,7.14,25.08,2.95,20.6-6.88c-4.32-9.5-3.08-11.58-5.14-16.72s-2.06-8.23.77-7.46,2.32,3.34,3.09,7.2,3.6,6.43,6.17,4.37,2.32-6.94,2.57-11.83-3.6-8.49-8.23-12.35-6.94-5.92-6.94-5.92L373.17,398s8.23-5.4,14.4-10.55S398.38,379,404,374.07s7.46-6.17,10-13.37,4.63-14.41,4.63-21.35V318l-17.49-.51H387.32s-3.48,6-3.48,10.66,2.31,16.82,2.31,18.37-.88-2.69-7.57,3.48-6.18,12.25-13.13,17.91S349.76,381,345.64,383.33s-5.91,5.41-8.74,2.83S321.2,372,321.2,372l-11.31-12.09L295.48,343.2l-10.55-11.31L279,326.48l-1-16,.25-11H249.18Z"/><path class="cls-6" d="M316.13,153.17c0,6.45.38,11.73.08,16s0,4.61-1.84,6.14-4.91,2.76-9.21,4-11,3.07-16.56,4.29-6.84.64-12.27,2.15a40.78,40.78,0,0,0-15.65,7.67c-4.78,3.85-9.51,9.2-11,14.42s-2.49,5.45-4.91,19c-2.48,13.9-1.84,26.38-1.84,34.36v41.41s-2.87,8.28,2.76,8.28h3.71l-.18-11.35h29.06l-1,25.16L292.89,341l14.42,15.95,7.06,7.67H369l17.18-18.1v-27L418.7,318s15.61,3.36,19.91,1.52,3.37-3.07,3.07-8.59S439.4,283,439.4,283s1.15-10.65,1.05-14.66c-.11-4.33-.93-15-1.24-23s-2-11-2.5-21.08-7.88-22.86-15.78-29-1.85-1.56-7.35-5.73a39.66,39.66,0,0,0-11.89-6,94.17,94.17,0,0,0-11.24-3.1c-6-1.29-16.26-6.13-16.26-6.13s-7.06-1.84-7.67-5.83-1.23-15-1.23-15v-9.2a54.35,54.35,0,0,1-6.13,8.59c-3.38,3.68-4.61,5.21-8.59,7.36s-8.9,2.45-12,2.45-7.05-1.23-11-3.37S316.13,153.17,316.13,153.17Z"/><path class="cls-7" d="M240.21,440.15c-9.64-1.24-10.67-1.61-17.66-.79s-15.27,0-19.57,7.26c-4.41,7.39-5.78,13.23-5.37,15.47.51,2.79-.57,6,6.63,13.57,7,7.32,14.52,11,23.67,13.26s30,1.89,30,1.89,10.64-2.1,12.63-1.89,21.46,0,21.46,0l7.58-.63s7.95,1.33,0-3.16c-2-1.12-1.89-9.15-1.89-9.15s-1.9-7,.94-9.47a54.37,54.37,0,0,0,4.74-4.76,38.22,38.22,0,0,0-9.47-2.82c-4.74-.63-14.84-5.05-14.84-5.05l-12.94-3.79a98.86,98.86,0,0,1-10.1-4.42C250.33,442.83,240.21,440.15,240.21,440.15Z"/><path class="cls-7" d="M370.89,474.94c2.21,3.47,1.75,4.55,2.66,8.43,0,0,.32,4.74,4.3,4.92s18.63,1.26,18.63,1.26.59-3.51,5-3.47,6.31-.95,13.57.63,15.79,2.21,23-.31,10.38-5.06,12.92-8.21,3.18-10.09,3.18-13.41-.5-17.65-.5-17.65l-2.68-3.3s0-.68-5-.68-13.57,6.31-13.57,6.31l-11.68,5.68s-5.69,4.11-9.79,5.05-13.89,4.59-13.89,4.59l-7.58,1L379.43,469l-5.68,2.84Z"/></g><g id="pattern"><ellipse class="cls-8" cx="256.88" cy="228.73" rx="5.43" ry="5.91" transform="translate(-41.82 58.19) rotate(-11.96)"/><ellipse class="cls-8" cx="265.61" cy="243.71" rx="5.43" ry="5.91" transform="translate(-44.73 60.32) rotate(-11.96)"/><path class="cls-9" d="M274.26,261.31c-2.6.55-.44-2.12-1-4.72s-3.6-4.17-1-4.72a4.82,4.82,0,1,1,2,9.44"/><path class="cls-8" d="M254.62,257.5a5.45,5.45,0,1,1,6.54,4.65,5.69,5.69,0,0,1-6.54-4.65"/><ellipse class="cls-8" cx="273.63" cy="214.5" rx="5.43" ry="5.91" transform="translate(-38.5 61.35) rotate(-11.96)"/><ellipse class="cls-8" cx="285.4" cy="230.64" rx="5.43" ry="5.91" transform="translate(-41.59 64.14) rotate(-11.96)"/><path class="cls-9" d="M297.77,242.52a4.82,4.82,0,0,1-3.71,5.72c-2.61.55-.45-2.11-1-4.72s-3.61-4.17-1-4.72A4.82,4.82,0,0,1,297.77,242.52Z"/><path class="cls-9" d="M256.39,215.72a4.82,4.82,0,0,1,4.39-5.22c2.65-.23.18,2.15.41,4.8s3.07,4.58.41,4.81A4.81,4.81,0,0,1,256.39,215.72Z"/><path class="cls-9" d="M271.49,195a4.83,4.83,0,0,1,4.39-5.22c2.66-.22.19,2.16.41,4.81s3.07,4.58.42,4.8A4.82,4.82,0,0,1,271.49,195Z"/><ellipse class="cls-8" cx="271.1" cy="228.79" rx="5.43" ry="5.91" transform="translate(-41.52 61.13) rotate(-11.96)"/><ellipse class="cls-8" cx="279.73" cy="243.3" rx="5.43" ry="5.91" transform="translate(-44.34 63.24) rotate(-11.96)"/><ellipse class="cls-8" cx="283.14" cy="269.19" rx="5.43" ry="5.91" transform="translate(-49.63 64.5) rotate(-11.96)"/><ellipse class="cls-8" cx="291.86" cy="284.18" rx="5.43" ry="5.91" transform="translate(-52.54 66.64) rotate(-11.96)"/><path class="cls-9" d="M300.52,301.77c-2.61.55-.45-2.11-1-4.72s-3.6-4.16-1-4.71a4.82,4.82,0,1,1,2,9.43"/><path class="cls-9" d="M267.27,270.54a4.81,4.81,0,0,1,4.39-5.22c2.65-.23.18,2.15.41,4.8s3.06,4.58.41,4.81A4.82,4.82,0,0,1,267.27,270.54Z"/><ellipse class="cls-8" cx="277.91" cy="283.93" rx="5.43" ry="5.91" transform="translate(-52.8 63.74) rotate(-11.96)"/><ellipse class="cls-8" cx="286.19" cy="296.84" rx="5.43" ry="5.91" transform="translate(-55.29 65.74) rotate(-11.96)"/><path class="cls-8" d="M305.2,253.84a5.45,5.45,0,1,1-6.54-4.65,5.68,5.68,0,0,1,6.54,4.65"/><path class="cls-9" d="M287,251c2.65-.22.18,2.16.41,4.81s3.06,4.58.41,4.8A4.82,4.82,0,1,1,287,251"/><ellipse class="cls-8" cx="297.36" cy="269.26" rx="5.43" ry="5.91" transform="translate(-49.33 67.45) rotate(-11.96)"/><path class="cls-8" d="M311.3,282.64a5.45,5.45,0,1,1-6.54-4.66,5.68,5.68,0,0,1,6.54,4.66"/><ellipse class="cls-8" cx="297.79" cy="202.24" rx="5.43" ry="5.91" transform="translate(-35.44 66.09) rotate(-11.96)"/><ellipse class="cls-8" cx="306.51" cy="217.22" rx="5.43" ry="5.91" transform="translate(-38.35 68.22) rotate(-11.96)"/><ellipse class="cls-8" cx="266.37" cy="202.61" rx="5.43" ry="5.91" transform="translate(-36.2 59.58) rotate(-11.96)"/><ellipse class="cls-8" cx="284.41" cy="204.91" rx="5.43" ry="5.91" transform="translate(-36.28 63.37) rotate(-11.96)"/><path class="cls-9" d="M315.17,234.82c-2.61.55-.45-2.11-1-4.72s-3.61-4.16-1-4.72a4.82,4.82,0,1,1,2,9.44"/><path class="cls-9" d="M294.06,220.63c-2.61.55-.45-2.12-1-4.72s-3.61-4.17-1-4.72a4.82,4.82,0,1,1,2,9.44"/><path class="cls-8" d="M295.53,231a5.45,5.45,0,1,1,6.54,4.66,5.68,5.68,0,0,1-6.54-4.66"/><ellipse class="cls-8" cx="314.53" cy="188.02" rx="5.43" ry="5.91" transform="translate(-32.13 69.25) rotate(-11.96)"/><ellipse class="cls-8" cx="326.3" cy="204.15" rx="5.43" ry="5.91" transform="translate(-35.22 72.04) rotate(-11.96)"/><path class="cls-9" d="M338.68,216a4.83,4.83,0,0,1-3.72,5.72c-2.61.55-.45-2.11-1-4.72s-3.6-4.16-1-4.72A4.83,4.83,0,0,1,338.68,216Z"/><path class="cls-9" d="M297.29,189.23a4.82,4.82,0,0,1,4.39-5.22c2.66-.23.19,2.15.42,4.81s3.06,4.57.41,4.8A4.82,4.82,0,0,1,297.29,189.23Z"/><path class="cls-9" d="M282.11,217.51a4.84,4.84,0,0,1,4.4-5.22c2.65-.22.18,2.15.41,4.81s3.06,4.57.41,4.8A4.83,4.83,0,0,1,282.11,217.51Z"/><ellipse class="cls-8" cx="312.01" cy="202.3" rx="5.43" ry="5.91" transform="translate(-35.14 69.03) rotate(-11.96)"/><ellipse class="cls-8" cx="320.63" cy="216.81" rx="5.43" ry="5.91" transform="translate(-37.96 71.14) rotate(-11.96)"/><ellipse class="cls-8" cx="324.04" cy="242.7" rx="5.43" ry="5.91" transform="translate(-43.25 72.4) rotate(-11.96)"/><ellipse class="cls-8" cx="332.77" cy="257.69" rx="5.43" ry="5.91" transform="translate(-46.17 74.54) rotate(-11.96)"/><path class="cls-9" d="M341.42,275.28c-2.6.55-.44-2.11-1-4.71s-3.61-4.17-1-4.72a4.82,4.82,0,1,1,2,9.43"/><path class="cls-9" d="M311.43,277.17c-2.31-1.33,1.08-1.87,2.41-4.17s.12-5.51,2.42-4.17a4.82,4.82,0,1,1-4.83,8.34"/><path class="cls-9" d="M309.73,270.3c-2.61.55-.45-2.12-1-4.72s-3.6-4.17-1-4.72a4.82,4.82,0,1,1,2,9.44"/><path class="cls-9" d="M308.17,244.05a4.82,4.82,0,0,1,4.39-5.22c2.66-.23.19,2.15.41,4.8s3.07,4.58.42,4.81A4.82,4.82,0,0,1,308.17,244.05Z"/><ellipse class="cls-8" cx="318.81" cy="257.45" rx="5.43" ry="5.91" transform="translate(-46.42 71.64) rotate(-11.96)"/><ellipse class="cls-8" cx="327.1" cy="270.35" rx="5.43" ry="5.91" transform="translate(-48.91 73.64) rotate(-11.96)"/><path class="cls-8" d="M346.1,227.35a5.45,5.45,0,1,1-6.53-4.65,5.68,5.68,0,0,1,6.53,4.65"/><path class="cls-9" d="M327.94,224.48c2.65-.23.19,2.15.41,4.8s3.07,4.58.41,4.8a4.82,4.82,0,1,1-.82-9.6"/><ellipse class="cls-8" cx="338.26" cy="242.77" rx="5.43" ry="5.91" transform="translate(-42.96 75.35) rotate(-11.96)"/><path class="cls-8" d="M352.2,256.15a5.45,5.45,0,1,1-6.53-4.65,5.68,5.68,0,0,1,6.53,4.65"/><ellipse class="cls-8" cx="348.88" cy="211.73" rx="5.43" ry="5.91" transform="translate(-36.3 76.88) rotate(-11.96)"/><ellipse class="cls-8" cx="357.61" cy="226.71" rx="5.43" ry="5.91" transform="translate(-39.21 79.01) rotate(-11.96)"/><path class="cls-9" d="M366.26,244.31c-2.6.55-.44-2.12-1-4.72s-3.6-4.17-1-4.72a4.82,4.82,0,1,1,2,9.44"/><path class="cls-8" d="M346.62,240.5a5.45,5.45,0,1,1,6.54,4.65,5.69,5.69,0,0,1-6.54-4.65"/><ellipse class="cls-8" cx="365.63" cy="197.5" rx="5.43" ry="5.91" transform="translate(-32.99 80.04) rotate(-11.96)"/><ellipse class="cls-8" cx="377.4" cy="213.64" rx="5.43" ry="5.91" transform="translate(-36.07 82.83) rotate(-11.96)"/><path class="cls-9" d="M389.77,225.52a4.82,4.82,0,0,1-3.71,5.72c-2.61.55-.45-2.11-1-4.72s-3.61-4.17-1-4.72A4.82,4.82,0,0,1,389.77,225.52Z"/><path class="cls-9" d="M348.39,198.72a4.82,4.82,0,0,1,4.39-5.22c2.65-.23.18,2.15.41,4.8s3.07,4.58.41,4.81A4.81,4.81,0,0,1,348.39,198.72Z"/><path class="cls-9" d="M363.49,178a4.83,4.83,0,0,1,4.39-5.22c2.66-.22.19,2.16.41,4.81s3.07,4.58.42,4.8A4.82,4.82,0,0,1,363.49,178Z"/><ellipse class="cls-8" cx="363.1" cy="211.79" rx="5.43" ry="5.91" transform="translate(-36 79.83) rotate(-11.96)"/><ellipse class="cls-8" cx="371.73" cy="226.3" rx="5.43" ry="5.91" transform="translate(-38.82 81.93) rotate(-11.96)"/><ellipse class="cls-8" cx="375.14" cy="252.19" rx="5.43" ry="5.91" transform="translate(-44.11 83.2) rotate(-11.96)"/><ellipse class="cls-8" cx="383.86" cy="267.18" rx="5.43" ry="5.91" transform="translate(-47.03 85.33) rotate(-11.96)"/><path class="cls-9" d="M250.52,249.77c-2.61.55-.45-2.11-1-4.72s-3.6-4.16-1-4.71a4.82,4.82,0,1,1,2,9.43"/><path class="cls-9" d="M359.27,253.54a4.81,4.81,0,0,1,4.39-5.22c2.65-.23.18,2.15.41,4.8s3.06,4.58.41,4.81A4.82,4.82,0,0,1,359.27,253.54Z"/><ellipse class="cls-8" cx="369.91" cy="266.93" rx="5.43" ry="5.91" transform="translate(-47.28 82.43) rotate(-11.96)"/><ellipse class="cls-8" cx="253.19" cy="268.84" rx="5.43" ry="5.91" transform="translate(-50.21 58.29) rotate(-11.96)"/><path class="cls-8" d="M397.2,236.84a5.45,5.45,0,1,1-6.54-4.65,5.68,5.68,0,0,1,6.54,4.65"/><path class="cls-9" d="M379,234c2.65-.22.18,2.16.41,4.81s3.06,4.58.41,4.8A4.82,4.82,0,1,1,379,234"/><ellipse class="cls-8" cx="389.36" cy="252.26" rx="5.43" ry="5.91" transform="translate(-43.82 86.14) rotate(-11.96)"/><path class="cls-8" d="M403.3,265.64a5.45,5.45,0,1,1-6.54-4.66,5.68,5.68,0,0,1,6.54,4.66"/><ellipse class="cls-8" cx="389.79" cy="185.24" rx="5.43" ry="5.91" transform="translate(-29.92 84.78) rotate(-11.96)"/><ellipse class="cls-8" cx="398.51" cy="200.22" rx="5.43" ry="5.91" transform="translate(-32.84 86.91) rotate(-11.96)"/><ellipse class="cls-8" cx="358.37" cy="185.61" rx="5.43" ry="5.91" transform="translate(-30.68 78.28) rotate(-11.96)"/><ellipse class="cls-8" cx="376.41" cy="187.91" rx="5.43" ry="5.91" transform="translate(-30.77 82.06) rotate(-11.96)"/><path class="cls-9" d="M407.17,217.82c-2.61.55-.45-2.11-1-4.72s-3.61-4.16-1-4.72a4.82,4.82,0,1,1,2,9.44"/><path class="cls-9" d="M386.06,203.63c-2.61.55-.45-2.12-1-4.72s-3.61-4.17-1-4.72a4.82,4.82,0,1,1,2,9.44"/><path class="cls-8" d="M387.53,214a5.45,5.45,0,1,1,6.54,4.66,5.68,5.68,0,0,1-6.54-4.66"/><ellipse class="cls-8" cx="297.53" cy="312.02" rx="5.43" ry="5.91" transform="translate(-58.19 68.42) rotate(-11.96)"/><ellipse class="cls-8" cx="321.3" cy="285.15" rx="5.43" ry="5.91" transform="translate(-52.11 72.76) rotate(-11.96)"/><path class="cls-9" d="M341.68,203a4.83,4.83,0,0,1-3.72,5.72c-2.61.55-.45-2.11-1-4.72s-3.6-4.16-1-4.72A4.83,4.83,0,0,1,341.68,203Z"/><path class="cls-9" d="M282.29,312.23a4.82,4.82,0,0,1,4.39-5.22c2.66-.23.19,2.15.42,4.81s3.06,4.57.41,4.8A4.82,4.82,0,0,1,282.29,312.23Z"/><path class="cls-9" d="M374.11,200.51a4.84,4.84,0,0,1,4.4-5.22c2.65-.22.18,2.15.41,4.81s3.06,4.57.41,4.8A4.83,4.83,0,0,1,374.11,200.51Z"/><ellipse class="cls-8" cx="357.01" cy="267.3" rx="5.43" ry="5.91" transform="translate(-47.64 79.77) rotate(-11.96)"/><ellipse class="cls-8" cx="412.63" cy="199.81" rx="5.43" ry="5.91" transform="translate(-32.45 89.83) rotate(-11.96)"/><ellipse class="cls-8" cx="416.04" cy="225.7" rx="5.43" ry="5.91" transform="translate(-37.74 91.1) rotate(-11.96)"/><ellipse class="cls-8" cx="424.77" cy="240.69" rx="5.43" ry="5.91" transform="translate(-40.65 93.23) rotate(-11.96)"/><path class="cls-9" d="M433.42,258.28c-2.6.55-.44-2.11-1-4.71s-3.61-4.17-1-4.72a4.82,4.82,0,1,1,2,9.43"/><path class="cls-9" d="M403.43,260.17c-2.31-1.33,1.08-1.87,2.41-4.17s.12-5.51,2.42-4.17a4.82,4.82,0,1,1-4.83,8.34"/><path class="cls-9" d="M401.73,253.3c-2.61.55-.45-2.12-1-4.72s-3.6-4.17-1-4.72a4.82,4.82,0,1,1,2,9.44"/><path class="cls-9" d="M400.17,227.05a4.82,4.82,0,0,1,4.39-5.22c2.66-.23.19,2.15.41,4.8s3.07,4.58.42,4.81A4.82,4.82,0,0,1,400.17,227.05Z"/><ellipse class="cls-8" cx="410.81" cy="240.45" rx="5.43" ry="5.91" transform="translate(-40.9 90.33) rotate(-11.96)"/><ellipse class="cls-8" cx="419.1" cy="253.35" rx="5.43" ry="5.91" transform="translate(-43.4 92.33) rotate(-11.96)"/><path class="cls-8" d="M346.1,189.35a5.45,5.45,0,1,1-6.53-4.65,5.68,5.68,0,0,1,6.53,4.65"/><path class="cls-9" d="M419.94,207.48c2.65-.23.19,2.15.41,4.8s3.07,4.58.41,4.8a4.82,4.82,0,1,1-.82-9.6"/><ellipse class="cls-8" cx="430.26" cy="225.77" rx="5.43" ry="5.91" transform="translate(-37.44 94.04) rotate(-11.96)"/><path class="cls-8" d="M348.2,178.15a5.45,5.45,0,1,1-6.53-4.65,5.68,5.68,0,0,1,6.53,4.65"/></g></g></svg>